<?xml version="1.0" encoding="UTF-8" standalone="no"?>
<!-- Created with Inkscape (http://www.inkscape.org/) -->

<svg
   version="1.1"
   id="svg2708"
   width="882.34595"
   height="1460.8043"
   viewBox="0 0 882.34595 1460.8043"
   sodipodi:docname="22b.svg"
   inkscape:version="1.2.2 (732a01da63, 2022-12-09, custom)"
   xmlns:inkscape="http://www.inkscape.org/namespaces/inkscape"
   xmlns:sodipodi="http://sodipodi.sourceforge.net/DTD/sodipodi-0.dtd"
   xmlns="http://www.w3.org/2000/svg"
   xmlns:svg="http://www.w3.org/2000/svg">
  <defs
     id="defs2712" />
  <sodipodi:namedview
     id="namedview2710"
     pagecolor="#ffffff"
     bordercolor="#000000"
     borderopacity="0.25"
     inkscape:showpageshadow="2"
     inkscape:pageopacity="0.0"
     inkscape:pagecheckerboard="0"
     inkscape:deskcolor="#d1d1d1"
     showgrid="false"
     inkscape:zoom="0.49547396"
     inkscape:cx="437.96449"
     inkscape:cy="678.13856"
     inkscape:window-width="1920"
     inkscape:window-height="1031"
     inkscape:window-x="0"
     inkscape:window-y="25"
     inkscape:window-maximized="1"
     inkscape:current-layer="layer2" />
  <g
     inkscape:groupmode="layer"
     id="layer2"
     inkscape:label="Layer 1">
    <path
       id="path3189"
       style="fill:#000000;stroke-width:1.06667"
       d="M 459.68374 36.812249 C 457.52146 36.704971 454.53084 38.393938 450.94742 41.782952 C 446.65355 45.843848 429.86734 66.865135 429.86734 68.18139 C 429.86734 68.661269 427.94642 71.466525 425.59976 74.413812 C 423.25309 77.361099 421.33413 80.094827 421.33413 80.489984 C 421.33413 80.885139 420.13283 82.78193 418.66617 84.704827 C 417.19951 86.627724 416.00015 88.494694 416.00015 88.853265 C 416.00015 90.794689 405.20572 105.60145 403.79507 105.59545 C 402.28084 105.58861 396.3806 99.941288 389.86734 92.267327 C 374.37454 74.013647 358.40507 61.434676 355.02163 64.818109 C 354.40237 65.43738 353.94712 69.323999 354.00992 73.454827 C 354.20932 86.554505 357.2435 125.18445 358.3771 129.0603 C 358.97652 131.10975 359.46695 134.37099 359.46695 136.30834 C 359.46695 140.40185 363.25256 152.8354 369.11734 167.99975 C 375.24852 183.85296 387.89332 213.01225 389.55484 215.13061 C 392.34377 218.68637 407.46004 251.60628 407.46304 254.13256 C 407.46687 256.81377 407.12315 257.06639 403.46695 257.05639 C 399.76129 257.04619 396.52003 255.66444 387.20913 250.13256 C 381.8928 246.97396 374.17212 239.18683 369.76187 232.53295 C 367.6232 229.30629 365.50871 226.18603 365.06265 225.59936 C 363.69189 223.7965 356.65187 207.98945 352.71109 197.86694 C 350.65554 192.58694 346.33969 181.54706 343.12124 173.33373 C 339.9028 165.1204 336.97983 157.40782 336.62515 156.19506 C 335.61786 152.75078 324.66352 134.64772 321.36538 130.97631 C 310.20039 118.54773 295.57646 105.61962 292.66421 105.60522 C 292.00272 105.60195 290.90214 104.92652 290.2189 104.10326 C 289.53565 103.28001 286.33904 101.31522 283.11538 99.738031 C 274.61398 95.5787 273.72219 96.623531 274.50796 109.82592 C 274.84101 115.4216 275.61524 122.64027 276.22671 125.86694 C 278.07535 135.62212 278.71123 140.80053 278.0607 140.80053 C 277.12715 140.80053 272.92677 136.66599 267.22085 130.13256 C 264.40286 126.90589 259.64524 121.45761 256.64859 118.02319 C 253.65194 114.58877 248.36865 109.06785 244.90835 105.75561 C 241.44805 102.44336 237.12843 98.244123 235.30874 96.423577 C 231.15673 92.269621 210.52806 75.734124 209.4982 75.734124 C 209.07796 75.734124 207.24912 74.605928 205.43374 73.228265 C 201.25537 70.057348 195.03188 67.988084 192.54312 68.943109 C 190.77509 69.621566 190.69269 70.71781 191.48453 83.107171 C 192.52355 99.364167 192.57889 106.44251 191.67398 107.34741 C 190.67687 108.3445 181.88526 106.20241 173.33413 102.87866 C 159.22846 97.395895 140.58242 92.426254 124.38687 89.831781 C 107.84913 87.182489 83.002023 86.843918 75.035306 89.159906 C 71.898768 90.071723 69.334135 90.906464 69.334135 91.015374 C 69.334135 91.124285 69.77969 92.768533 70.324369 94.667718 C 71.200077 97.721133 85.739417 122.36264 87.47476 123.73412 C 89.712441 125.50262 120.53335 176.98358 120.53335 178.95287 C 120.53335 180.38914 117.7155 180.93369 102.40054 182.45483 C 95.653883 183.12494 86.875442 184.61202 82.894681 185.75951 L 75.658353 187.84545 L 76.355619 191.78881 C 77.058031 195.76219 85.118105 210.13256 86.644681 210.13256 C 87.096378 210.13256 87.466947 210.61426 87.466947 211.20092 C 87.466947 211.78759 88.307469 213.15553 89.334135 214.24194 C 92.485847 217.57704 97.456588 223.32277 99.716947 226.24194 C 102.60271 229.9688 110.66869 239.39009 114.88492 243.95873 C 116.76499 245.99596 119.8486 250.07229 121.73843 253.01733 C 125.67281 259.14853 125.93026 258.73965 115.41031 263.07592 C 104.68801 267.4956 90.666166 277.49769 90.666166 280.72631 C 90.666166 281.90461 101.02397 291.41924 104.97085 293.86694 C 106.86284 295.04028 110.29838 297.47961 112.60562 299.28881 C 114.91286 301.098 117.52054 302.88895 118.40054 303.26733 C 119.28054 303.6457 121.91911 305.15768 124.26578 306.6267 C 128.06348 309.00407 160.79311 325.70796 162.13296 325.95287 C 162.77242 326.06975 165.45306 327.14996 171.19937 329.60326 C 173.54604 330.60514 178.34734 332.51842 181.86734 333.85522 C 185.38733 335.19202 189.22721 336.67416 190.40054 337.14819 C 191.57388 337.62223 193.97257 338.2854 195.73257 338.6228 C 209.49764 341.26158 214.9378 341.87229 234.13296 342.9392 C 240.58629 343.2979 246.58695 343.77183 247.46695 343.99194 C 248.34695 344.21206 251.46721 344.67035 254.40054 345.00951 C 263.52172 346.06413 269.61439 347.82165 271.54312 349.95287 C 272.56255 351.07932 273.20258 351.99965 272.96499 351.99975 C 272.72739 351.99986 268.69349 352.75415 264.00015 353.67553 C 255.836 355.27831 231.73668 355.98548 224.53335 354.83373 C 222.77336 354.55231 218.45374 354.00252 214.93374 353.61108 C 211.41375 353.21963 204.45361 352.00432 199.46695 350.90991 C 194.48028 349.81549 188.71949 348.62764 186.66617 348.27123 C 184.61284 347.91483 179.81349 346.94577 176.00015 346.11889 C 164.92893 343.7182 162.30473 343.38613 149.29117 342.73803 C 138.21422 342.18637 135.81089 342.41906 125.29117 345.05053 C 112.47215 348.25715 106.90877 350.52816 105.22867 353.23998 C 103.69406 355.71696 107.45015 360.8841 115.18374 366.93334 C 122.9543 373.01149 126.3824 377.56443 124.52359 379.33959 C 123.79553 380.03488 117.44053 382.58862 110.40054 385.01342 C 84.298176 394.0039 66.742355 401.92752 60.18765 407.67553 C 55.278441 411.98056 37.692572 433.71315 37.011869 436.31616 C 36.449771 438.46562 39.488353 440.18084 55.466947 446.73412 C 72.738388 453.81765 85.166624 459.74034 111.24038 473.3142 C 115.67437 475.62252 117.69834 479.31616 116.89078 483.62084 C 116.16479 487.49072 116.02791 487.81342 108.29312 503.63061 C 104.98543 510.39463 103.48876 514.65466 103.93179 516.05053 C 105.13573 519.84383 114.98588 520.38607 135.46695 517.78491 C 163.14864 514.26925 176.80943 508.66993 200.96109 490.94311 C 211.02574 483.55586 212.65581 482.13222 228.94937 466.49584 C 242.46566 453.52472 253.29966 447.83604 261.1857 449.56811 C 268.43841 451.16107 267.63062 462.06625 259.74234 469.04272 C 251.44598 476.38009 249.17363 478.10466 237.87515 485.656 C 231.71077 489.77598 226.42629 493.44885 226.13296 493.81616 C 225.83962 494.18347 221.60496 497.2615 216.72085 500.656 C 211.83674 504.05049 206.98495 507.63048 205.9396 508.61303 C 204.89425 509.59559 201.76092 512.3191 198.97671 514.66576 C 192.53535 520.09485 179.50019 536.29044 175.15054 544.26733 C 173.31111 547.64065 172.08839 550.40014 172.43374 550.40014 C 172.77907 550.40014 172.59149 551.00078 172.01773 551.73412 C 170.20513 554.0508 169.77984 557.70278 171.10953 559.52123 C 172.57242 561.52186 177.62901 560.9351 194.13296 556.84741 C 209.56841 553.02436 222.99672 551.07321 226.51187 552.14428 C 228.11103 552.63155 228.35336 553.39198 227.77554 556.10717 C 226.60181 561.62259 226.3911 562.33444 223.48453 570.66576 C 218.78196 584.14501 217.43717 591.74888 217.41617 604.96264 C 217.40265 613.47858 217.95795 619.35276 219.17203 623.52905 L 220.94742 629.63842 L 230.74038 629.03881 C 236.12631 628.70919 249.80634 627.34436 261.13882 626.00561 C 279.00442 623.89508 281.87238 623.77687 282.71695 625.11889 C 283.73258 626.73275 288.2636 638.34913 294.9689 656.53295 C 299.61444 669.13096 303.13904 676.35879 305.66226 678.45287 C 307.30406 679.81544 307.97567 679.42596 312.22085 674.65209 C 314.82199 671.72704 317.70749 667.90025 318.63296 666.14819 C 319.55842 664.39611 322.81983 659.83663 325.88101 656.01537 C 328.94217 652.19413 332.00271 647.99822 332.68179 646.69116 C 335.01372 642.20272 351.24787 622.39506 358.32437 615.40405 C 362.21906 611.55641 368.26932 606.31051 371.76968 603.74584 C 375.27006 601.18117 378.37284 598.80619 378.66617 598.4685 C 378.95951 598.13082 382.07976 595.7127 385.59976 593.09545 C 393.65953 587.10272 402.4442 578.1594 404.98257 573.36303 C 419.45256 546.02125 423.728 533.86617 423.7482 519.99975 C 423.76875 505.89651 421.02169 493.02837 412.18179 465.82201 C 407.219 450.54819 404.24077 434.77607 404.83413 426.90014 C 405.71599 415.19512 407.64583 413.2197 413.74038 417.78295 C 417.47234 420.57723 439.78162 442.64362 446.48843 450.17358 C 452.37789 456.78585 460.26814 468.65443 463.26968 475.41576 C 466.98434 483.78345 472.50563 501.99057 472.52163 505.92748 C 472.52832 507.57436 473.00591 510.93449 473.58413 513.39428 C 474.16236 515.85406 476.08637 531.06761 477.85953 547.20092 C 480.97077 575.50883 482.43904 586.35991 486.08218 607.99975 C 489.44021 627.94596 490.53071 633.39882 494.94156 652.26733 C 498.61373 667.97605 499.12348 672.0965 497.46695 672.73217 C 495.9322 673.32111 489.04939 672.77682 475.27554 670.97631 C 470.62396 670.36825 464.14356 669.62278 460.87515 669.32006 C 457.60675 669.01734 450.37426 668.34145 444.80093 667.81811 C 414.28826 664.95293 376.76933 669.00566 355.19937 677.4978 C 350.47953 679.35601 346.40254 681.73365 345.25406 683.29662 C 342.42943 687.14071 341.92136 694.53946 344.04312 700.92748 L 345.83218 706.31811 L 351.31656 705.83178 C 354.3326 705.56427 364.00094 703.11566 372.80093 700.39037 C 399.72745 692.05145 414.262 688.95248 425.06656 689.2517 C 430.28501 689.39621 449.80858 692.79694 457.86734 694.96459 C 458.89401 695.24075 460.81296 695.69967 462.13296 695.98412 C 465.41787 696.69199 477.65334 700.78735 481.76187 702.55444 C 483.61053 703.34957 485.52948 704.00733 486.02749 704.01733 C 486.5255 704.02716 490.77361 705.94031 495.46695 708.26733 C 503.52285 712.26155 503.78521 712.49857 500.17007 712.51537 C 494.56661 712.54152 481.06407 716.22944 474.5021 719.52514 C 465.80832 723.89151 456.19367 731.09198 450.75406 737.3103 C 447.10944 741.47664 445.48984 742.64278 444.4396 741.85717 C 425.32647 727.55983 404.90757 721.4703 384.67398 724.03491 C 362.29158 726.87187 343.98372 736.8914 330.83804 753.49975 C 327.51667 757.69601 323.85662 762.90561 322.70328 765.07592 L 320.60562 769.02123 L 316.42788 760.28295 C 310.75479 748.41773 297.57893 735.0748 285.86734 729.33764 C 273.5937 723.32513 265.95728 721.62511 251.73257 721.73217 C 241.54703 721.80883 238.01934 722.29877 230.93374 724.61889 C 189.5025 738.18518 170.56786 781.97984 189.99234 819.31616 C 194.41737 827.82162 204.78938 839.58332 211.21109 843.3767 C 215.37598 845.83697 215.23437 846.54434 210.40054 847.41772 C 203.92638 848.58752 189.39631 856.13062 182.40249 861.95092 C 170.49912 871.85701 161.54094 885.55695 156.65054 901.33373 C 153.40879 911.79183 153.13209 933.21636 156.09976 943.99975 C 160.69783 960.70742 171.12238 976.64902 183.67007 986.15795 C 191.44399 992.0492 204.8625 998.59053 213.33413 1000.6208 C 219.65375 1002.1354 237.60135 1002.531 242.41617 1001.2615 L 245.36734 1000.4841 L 244.55093 1005.0427 C 243.19608 1012.6054 243.82647 1029.3913 245.74429 1036.8005 C 251.90565 1060.6042 269.46885 1079.8561 291.42398 1086.8728 L 295.37906 1088.1365 L 290.60367 1093.9997 C 284.43162 1101.5773 278.81476 1112.8057 276.06851 1123.0544 C 273.04596 1134.3336 273.04688 1152.6024 276.07046 1163.8865 C 280.89644 1181.8972 292.5332 1198.8088 306.90249 1208.6951 C 317.61817 1216.0677 335.97866 1222.4001 346.64078 1222.4001 C 349.85105 1222.4001 349.76801 1222.5376 341.61929 1230.6833 C 324.58309 1247.7135 317.17005 1266.9923 318.14273 1291.7341 C 318.98373 1313.1261 325.62467 1328.1176 341.33413 1344.0896 C 348.96964 1351.8527 351.99956 1354.0906 360.53335 1358.2771 C 373.64786 1364.7106 383.36317 1366.7733 397.33413 1366.0876 C 410.44674 1365.444 422.65907 1361.667 432.86343 1355.1013 L 439.94156 1350.5486 L 443.25406 1356.7478 C 447.96702 1365.5688 453.74058 1373.1252 459.85757 1378.4763 L 465.14859 1383.1033 L 461.67593 1393.1521 C 458.39017 1402.6622 458.20172 1404.0278 458.16812 1418.6658 C 458.1376 1431.9768 458.48115 1435.2428 460.63296 1442.0955 C 468.99835 1468.7358 487.55238 1487.4911 513.06656 1495.0994 C 522.98252 1498.0563 541.19709 1498.4762 550.97671 1495.9724 C 578.12093 1489.0232 599.8948 1466.9847 606.97671 1439.2947 C 609.22754 1430.494 609.76599 1412.6287 608.04703 1403.7341 C 607.53683 1401.0941 607.24354 1398.8072 607.39663 1398.6521 C 607.54972 1398.497 610.34718 1399.5923 613.61343 1401.0876 C 631.76781 1409.399 655.23245 1408.7682 674.66617 1399.447 C 698.20003 1388.1592 714.16232 1365.6633 717.89078 1338.5251 C 719.68349 1325.4766 717.59847 1309.4116 712.59781 1297.7478 C 710.56993 1293.0178 710.53946 1292.6295 712.25406 1293.3357 C 724.87003 1298.5316 746.30589 1299.0963 760.00015 1294.5935 C 780.8453 1287.7396 798.69028 1271.6042 807.40054 1251.7341 C 815.8812 1232.3876 815.87495 1205.8813 807.38296 1186.6658 C 801.84963 1174.145 791.8723 1161.878 781.30679 1154.6013 L 775.59781 1150.6697 L 783.26578 1145.654 C 787.48304 1142.8959 794.33476 1136.9905 798.49234 1132.531 C 824.32078 1104.8272 826.42395 1061.5328 803.41421 1031.2009 C 800.41017 1027.2409 798.29266 1024.0178 798.70913 1024.0388 C 799.12562 1024.0597 802.34734 1024.7708 805.86734 1025.6208 C 809.38733 1026.4707 816.87009 1027.1733 822.49624 1027.1833 C 858.20382 1027.2414 889.08238 1003.0159 899.37124 966.8728 C 902.46784 955.99493 902.82725 934.24685 900.07437 924.26733 C 897.11105 913.52494 893.99736 906.13391 889.51382 899.19701 C 887.15854 895.55293 885.37441 892.19491 885.54898 891.73608 C 885.72356 891.27724 888.57346 888.7067 891.88101 886.02319 C 907.89229 873.03273 918.02222 852.16808 919.17007 829.81811 C 920.45725 804.75535 911.78606 783.21068 893.65445 766.42358 C 871.52889 745.93872 839.86426 741.06186 811.53531 753.77514 L 805.10562 756.65991 L 801.38492 752.18139 C 793.34758 742.5055 777.33113 732.64272 763.73257 728.99584 C 754.43852 726.50336 736.72389 726.43931 727.46695 728.86303 C 716.89283 731.63163 704.27746 738.30818 696.75406 745.11889 C 693.06191 748.46129 689.91188 751.01753 689.75406 750.79858 C 689.59624 750.57962 687.22595 747.20614 684.48648 743.30248 C 663.79896 713.82332 624.56163 703.21598 592.53335 718.44311 C 588.4267 720.39554 583.76555 722.84426 582.17593 723.88451 C 580.58632 724.92477 579.03068 725.52051 578.7189 725.20873 C 577.09276 723.5826 559.85454 691.61428 552.46695 676.52514 C 541.91905 654.9811 536.35014 641.09299 532.11148 625.76147 C 520.13899 582.45613 517.34708 559.67313 519.96304 526.64233 C 520.32418 522.08242 520.81066 517.76281 521.04507 517.04272 C 521.27949 516.32264 521.73961 513.60359 522.06656 510.99975 C 522.39353 508.3959 523.9101 502.16793 525.43765 497.15991 C 526.96519 492.15188 528.37534 487.32229 528.57242 486.42748 C 530.61958 477.13324 544.08273 443.93499 552.99429 426.20483 L 557.78335 416.67748 L 568.75796 412.76147 C 574.79434 410.60818 582.35375 407.51746 585.55679 405.89233 C 593.20353 402.01257 608.89107 392.27855 612.26578 389.32006 C 613.73243 388.03429 616.8527 385.5704 619.19937 383.8435 C 621.54604 382.11659 628.98592 374.95313 635.73257 367.92553 C 662.55725 339.98383 677.17642 325.46368 685.07046 318.91772 C 692.97354 312.36426 695.23601 309.4151 693.95328 307.33959 C 692.80961 305.48908 686.22006 303.06423 673.06656 299.65209 C 655.36434 295.05999 654.57076 294.50887 655.2521 287.32787 C 655.99751 279.47184 667.93441 245.01955 674.81656 230.86108 C 680.73601 218.68308 684.31139 214.58741 697.02359 205.42944 C 699.39347 203.72216 701.58563 201.94625 701.89468 201.48412 C 702.56363 200.48382 714.69889 191.45718 727.87906 182.156 C 736.0034 176.42267 738.36372 174.81874 741.25601 173.05639 C 741.68413 172.79552 730.99926 156.88229 729.62515 155.73412 C 729.2741 155.44078 726.39169 151.60092 723.22085 147.20092 C 720.05003 142.80093 716.41398 138.07475 715.13882 136.69897 C 712.86378 134.24444 712.75129 134.23204 709.20913 136.04076 C 699.18912 141.1573 661.07451 166.26681 657.59976 170.04076 C 657.01309 170.67794 653.89282 173.17072 650.66617 175.57983 C 641.29379 182.57747 636.67561 186.63776 622.37515 200.44701 C 614.73245 207.82721 613.01941 208.9471 606.37515 210.906 C 602.28264 212.11258 596.16963 213.39632 592.79117 213.75951 C 586.73015 214.41112 586.62041 214.37397 584.50796 210.94311 C 583.33046 209.0307 581.7024 205.26239 580.89078 202.56811 C 579.14022 196.75702 575.42635 189.23052 573.82046 188.23803 C 571.3163 186.69036 567.36888 189.14747 559.66031 197.05248 C 550.9278 206.00753 545.49947 212.23239 529.17984 231.99975 C 513.93766 250.46205 505.27231 259.20578 502.24234 259.17748 C 497.62289 259.13435 491.26809 255.38245 488.12124 250.84155 C 483.94108 244.80957 484.65463 239.38399 490.95913 229.2478 C 492.26519 227.14794 494.29361 223.85053 495.46695 221.91967 C 496.64028 219.9888 499.63964 215.86027 502.13296 212.74389 C 504.6263 209.62753 506.66617 206.76428 506.66617 206.38061 C 506.66617 205.99695 508.19041 203.44268 510.05288 200.70678 C 515.45583 192.77011 516.66704 190.78 520.21499 183.99975 C 524.16528 176.45063 527.73878 167.60528 528.47085 163.56811 C 528.75824 161.98328 529.48607 158.25262 530.08609 155.27709 C 531.79814 146.787 532.2458 142.32137 532.87515 127.46655 C 533.65158 109.14038 533.2737 108.38238 523.17203 107.94116 C 515.25928 107.59555 499.50554 110.2071 494.7189 112.65795 C 493.13469 113.46909 490.85495 114.13256 489.65249 114.13256 C 487.76104 114.13256 487.46083 113.44952 487.42593 109.06616 C 487.34455 98.831371 484.07883 85.046577 478.30679 70.581781 C 474.28751 60.509447 463.4281 39.072992 461.5607 37.523187 C 461.03268 37.084967 460.40451 36.848009 459.68374 36.812249 z M 432.58218 394.01928 C 434.12321 394.03624 436.54903 394.39724 439.64663 395.08569 C 443.94777 396.04162 448.42804 397.00868 449.60367 397.23412 C 450.77927 397.45956 453.89954 398.229 456.53726 398.94506 C 459.17497 399.66113 461.81387 400.35903 462.40054 400.49584 C 462.9872 400.63266 464.18656 401.0188 465.06656 401.35522 C 465.94656 401.69163 469.30669 402.80221 472.53335 403.82201 C 481.14043 406.54233 493.86734 414.08276 493.86734 416.46264 C 493.86734 417.14814 492.67716 421.76588 491.22281 426.72241 C 489.76845 431.67893 488.56714 436.36523 488.55484 437.13647 C 488.54253 437.90772 487.51331 440.90707 486.26773 443.80248 C 485.02215 446.6979 483.37413 449.06616 482.60367 449.06616 C 480.85747 449.06616 471.77047 440.80903 449.14663 418.66576 C 437.53434 407.30012 429.07774 396.09404 430.80874 394.36303 C 431.05032 394.12145 431.65756 394.00911 432.58218 394.01928 z "
       transform="translate(-36.949369,-36.808343)" />
    <path
       style="fill:#ffcc00;stroke-width:1.06667"
       d="m 318.52587,636.0685 c 3.72078,-7.49721 6.77633,-11.89354 11.62086,-16.72011 7.922,-7.89262 13.20256,-12.41504 14.49629,-12.41504 0.52634,0 0.95699,-0.39864 0.95699,-0.88585 0,-0.48721 2.28,-2.51188 5.06666,-4.49925 4.94606,-3.52739 14.30085,-10.77033 19.29062,-14.93576 1.36983,-1.14353 2.6488,-2.07914 2.84214,-2.07914 2.24331,0 26.13391,-27.04762 26.13391,-29.58735 0,-0.59663 0.70465,-1.66958 1.5659,-2.38436 0.86125,-0.71476 1.50268,-1.61353 1.42541,-1.99727 -0.0772,-0.38373 1.37959,-3.98581 3.23747,-8.00461 4.94262,-10.69154 6.5354,-18.72455 6.05935,-30.55975 -0.4238,-10.53567 -1.89247,-16.766 -10.68639,-45.33333 -6.0713,-19.72278 -8.66576,-29.23331 -10.64608,-39.02543 -2.02964,-10.03595 -2.31915,-24.98303 -0.52575,-27.14395 0.71389,-0.86018 0.94043,-1.56396 0.50342,-1.56396 -0.437,0 -0.29659,-0.6 0.31202,-1.33333 0.60861,-0.73333 1.22174,-1.81333 1.3625,-2.4 0.65677,-2.73731 4.89602,-6.9735 9.38476,-9.37796 10.34992,-5.54411 28.74905,-7.70861 41.77678,-4.91466 3.01091,0.64573 6.27454,1.329 7.2525,1.51839 0.97796,0.18939 1.89811,0.44107 2.04478,0.55928 0.14666,0.11822 0.62666,0.31517 1.06666,0.43766 0.44,0.12249 2.15125,0.78249 3.80278,1.46666 1.65152,0.68419 3.24228,1.24396 3.53502,1.24396 0.29272,0 3.15571,1.2 6.36216,2.66667 3.20647,1.46667 6.02446,2.66667 6.26222,2.66667 0.23775,0 1.78353,0.55376 3.43505,1.23057 1.65153,0.67681 3.48277,1.34061 4.06944,1.47512 0.58667,0.1345 5.14667,1.4886 10.13334,3.0091 4.98666,1.5205 10.98666,3.03071 13.33333,3.35602 2.34667,0.32532 5.22667,0.79362 6.4,1.04068 6.79312,1.43037 17.84029,2.13885 31.46667,2.01805 13.66101,-0.12111 16.43869,-0.46456 23.79276,-2.94197 13.49655,-4.54666 22.48492,-9.75941 30.68115,-17.79336 2.35341,-2.30681 4.48541,-4.19422 4.73778,-4.19422 0.25235,0 4.43296,-4.13607 9.29024,-9.19126 4.85727,-5.0552 12.1914,-12.67743 16.29807,-16.93829 4.10666,-4.26086 10.40541,-10.80479 13.99719,-14.54206 3.59179,-3.73728 9.11179,-9.1352 12.26667,-11.99538 7.25366,-6.57612 12.66947,-13.23649 12.66947,-15.58094 0,-2.28695 -5.43784,-3.97265 -15.46667,-4.79459 -21.87237,-1.79261 -23.40538,-2.91043 -17.50729,-12.76558 3.67989,-6.14876 10.26226,-20.32821 12.15877,-26.1919 1.04361,-3.22666 2.37273,-6.46666 2.9536,-7.2 0.58088,-0.73333 0.69859,-1.33333 0.26159,-1.33333 -0.437,0 -0.197,-0.72 0.53333,-1.6 0.73034,-0.88 1.0536,-1.6 0.71837,-1.6 -0.33523,0 0.0925,-1.68 0.95038,-3.73333 0.85793,-2.05334 1.25467,-3.73334 0.88163,-3.73334 -0.37304,0 -0.17307,-0.6087 0.44437,-1.35267 1.55164,-1.86962 3.85153,-19.12404 3.00085,-22.51338 -0.93398,-3.72129 -4.08568,-4.34707 -14.79161,-2.93691 -18.66335,2.45829 -28.31604,5.08108 -49.32998,13.40374 -11.79219,4.67035 -15.69978,4.89323 -17.47515,0.99672 -0.7023,-1.54138 -1.54547,-5.02138 -1.87373,-7.73334 -0.76785,-6.34395 -3.54165,-13.99901 -5.07004,-13.99219 -0.65364,0.003 -2.48949,1.08291 -4.07967,2.4 -3.25116,2.69279 -17.83164,20.72576 -18.75398,23.1947 -0.32874,0.88 -1.71305,3.08531 -3.07624,4.90068 -1.36319,1.81538 -2.49804,3.73538 -2.52188,4.26667 -0.0239,0.53129 -1.46384,2.62785 -3.2,4.65903 -1.73616,2.03117 -3.15665,4.28745 -3.15665,5.01397 0,1.87078 -12.15949,13.84031 -16.16325,15.91073 -6.98489,3.61203 -25.71534,1.56486 -33.97009,-3.71281 -8.10066,-5.17916 -15.17882,-15.85216 -15.55485,-23.45477 -0.27236,-5.50666 4.86311,-17.79035 10.36972,-24.80366 1.67849,-2.13776 3.0518,-4.22371 3.0518,-4.63545 0,-0.41173 5.28,-7.41931 11.73334,-15.5724 6.45333,-8.15309 11.73333,-15.11305 11.73333,-15.46656 0,-0.35353 1.07813,-2.15688 2.39585,-4.00744 1.31772,-1.85056 2.22114,-3.36466 2.00759,-3.36466 -0.21353,0 0.43479,-1.92 1.44072,-4.26667 7.31462,-17.06377 11.42745,-32.68281 11.31785,-42.98114 -0.0795,-7.46259 -1.19801,-10.41464 -4.32199,-11.40615 -2.42034,-0.76818 -14.31552,2.0121 -20.72499,4.8441 -2.40993,1.06482 -6.85503,2.2633 -9.87799,2.66328 -5.00879,0.66273 -5.61192,0.51118 -6.8,-1.70877 -0.71704,-1.33981 -1.51071,-5.83546 -1.7637,-9.99033 -1.23702,-20.315466 -2.234,-24.712606 -8.4119,-37.100238 -6.786,-13.606972 -10.28078,-18.98326 -12.34129,-18.98551 -1.60632,-0.0018 -12.39725,12.299669 -14.03369,15.998093 -0.38937,0.88 -1.89677,3.52 -3.34976,5.866667 -3.0131,4.866336 -10.20337,19.498968 -10.20337,20.764468 0,0.46254 -0.73159,1.44816 -1.62578,2.19026 -0.89418,0.7421 -1.3863,1.58875 -1.09361,1.88143 0.55759,0.55759 -7.15938,10.45469 -9.95994,12.77373 -0.89217,0.73877 -3.27828,1.80051 -5.30247,2.35941 -3.28499,0.90703 -4.14969,0.65721 -8.04928,-2.32557 -5.56229,-4.25458 -11.88008,-10.7061 -16.60725,-16.95875 -6.46528,-8.551667 -13.27779,-12.502417 -16.39581,-9.508351 -3.1091,2.985494 1.85162,48.957951 6.67833,61.890041 9.79497,26.24341 20.44515,49.48875 31.47678,68.70188 8.67317,15.10556 11.18111,20.82559 12.41321,28.31168 1.29446,7.86498 -0.4088,13.47851 -4.79093,15.7897 -4.07627,2.14988 -17.89551,2.31651 -22.47658,0.271 -1.76,-0.78585 -3.50866,-1.46905 -3.88592,-1.51821 -1.93775,-0.25251 -29.01693,-22.83867 -30.7318,-25.63274 -6.12156,-9.97398 -10.14168,-19.46635 -17.64204,-41.65664 -1.98294,-5.86667 -4.80917,-13.78667 -6.2805,-17.6 -1.47132,-3.81334 -3.92606,-10.26234 -5.45496,-14.33113 -6.03715,-16.06636 -17.18062,-31.67265 -30.01948,-42.04188 -10.28855,-8.30948 -11.58067,-5.33735 -6.19065,14.23967 8.05205,29.2458 8.92474,36.01439 4.78302,37.09748 -5.11467,1.33751 -10.65442,-3.43297 -28.84434,-24.83893 -2.64,-3.10676 -5.64,-6.53588 -6.66667,-7.62026 -1.02667,-1.0844 -1.86667,-2.21162 -1.86667,-2.50495 0,-0.29334 -0.84,-1.42239 -1.86666,-2.50902 -1.02667,-1.08662 -5.94667,-6.44409 -10.93334,-11.90549 -4.98666,-5.46139 -10.436,-11.17233 -12.10963,-12.69098 -1.67362,-1.51865 -5.86062,-5.43903 -9.30441,-8.71195 -7.34883,-6.984166 -14.36623,-10.897885 -18.65116,-10.402048 -2.97953,0.344779 -3.04189,0.484052 -2.73759,6.113858 0.17126,3.16857 0.75196,6.91982 1.29042,8.33611 1.22491,3.22175 1.25549,15.28187 0.0436,17.19373 -0.68381,1.07876 -1.77943,1.17584 -4.517,0.40023 -4.21981,-1.19556 -21.07525,-8.12603 -26.68485,-10.97205 -2.12884,-1.08006 -5.00884,-2.18495 -6.4,-2.4553 -1.39115,-0.27034 -6.64413,-1.46608 -11.67328,-2.65718 -25.63009,-6.07023 -54.09731,-8.75878 -58.045542,-5.48203 -2.316672,1.92266 -1.979659,8.45358 0.660968,12.80878 1.244968,2.05334 2.577914,3.97334 2.962104,4.26667 0.38419,0.29333 4.51363,6.41333 9.17654,13.6 4.6629,7.18667 8.84816,13.06667 9.30058,13.06667 0.4524,0 0.82256,0.68 0.82256,1.51111 0,0.83111 0.39873,1.67111 0.88606,1.86667 0.48734,0.19555 3.93347,4.91555 7.65804,10.48888 3.72458,5.57334 7.33687,10.61334 8.0273,11.2 3.03267,2.57687 11.29137,15.60677 10.96527,17.3001 -0.4668,2.42389 -6.79865,3.51719 -15.27001,2.63662 -10.36511,-1.07742 -25.39305,-0.69625 -28,0.71021 -1.43238,0.77276 -2.4,2.29745 -2.4,3.78169 0,3.08771 4.21741,13.43805 5.47555,13.43805 0.50845,0 0.92445,0.68 0.92445,1.51112 0,0.8311 0.36899,1.6711 0.81998,1.86666 0.45099,0.19555 3.19967,3.71555 6.10819,7.82222 5.76921,8.1458 8.3696,11.10883 21.65434,24.67411 9.93358,10.14335 13.00768,14.55674 13.0135,18.68307 0.004,2.64932 -0.43682,2.90059 -7.12921,4.06602 -3.92327,0.6832 -11.24327,1.48283 -16.26667,1.77694 -13.40219,0.78467 -14.06229,0.98879 -12.91935,3.99497 1.53974,4.04983 17.16497,18.79423 19.93392,18.81019 0.50525,0.003 2.35864,1.20934 4.11864,2.68093 1.76,1.4716 4.64,3.38822 6.4,4.25914 1.76,0.87093 4.64,2.52184 6.4,3.66868 2.84589,1.85443 12.01442,6.45262 12.86615,6.45262 0.18057,0 1.67955,0.55978 3.33107,1.24396 3.43778,1.42416 5.06454,1.94101 6.19786,1.96917 0.29063,0.007 3.05063,0.92864 6.13333,2.04758 5.32506,1.93288 7.84839,2.57885 15.20492,3.89246 1.76,0.31428 5.12,0.99118 7.46667,1.50424 5.2144,1.14003 20.19951,3.2152 34.66666,4.8007 8.4987,0.93142 27.82027,3.56961 30.93334,4.22369 3.65363,0.76767 15.80639,6.78956 19.83401,9.8281 1.81539,1.36956 3.77171,2.4901 4.34741,2.4901 3.59651,0 7.43234,9.1102 5.29317,12.57145 -2.0767,3.36018 -16.41235,7.30803 -29.94692,8.24698 -9.04864,0.62776 -33.44526,0.6134 -37.92767,-0.0223 -2.05334,-0.29121 -6.37334,-0.7819 -9.6,-1.09042 -5.09992,-0.48764 -9.71229,-1.21033 -21.33334,-3.3426 -1.46666,-0.26911 -6.74666,-1.39409 -11.73333,-2.49997 C 181.68,357.29062 176.16,356.12916 174.4,355.81547 c -1.76,-0.31369 -7.52,-1.47737 -12.8,-2.58595 -5.91418,-1.24174 -12.39847,-1.86878 -16.88884,-1.63316 C 136.85522,352.00855 128,355.20089 128,357.62079 c 0,2.89771 5.21059,6.62951 19.73334,14.13289 12.02635,6.21359 13.86666,7.49647 13.86666,9.66648 0,2.81208 -6.9685,5.97583 -21.9618,9.97081 -22.29366,5.94017 -30.23819,8.25838 -38.30486,11.17736 -15.425232,5.58169 -38.421545,20.63943 -38.387768,25.13589 0.0067,0.89603 1.806731,2.45211 4,3.45797 11.328157,5.19518 22.586805,10.81271 26.387763,13.1662 2.346667,1.45303 5.226667,3.11242 6.4,3.68754 1.173335,0.57512 2.853335,1.51045 3.733335,2.07851 2.39392,1.54532 10.44892,4.85523 17.03362,6.99935 16.02472,5.21797 18.58533,7.62061 17.02321,15.97291 -0.54862,2.93333 -1.31439,6.05333 -1.70171,6.93333 -0.38731,0.88 -0.78712,1.84 -0.88845,2.13333 -0.43107,1.24777 -2.04879,5.10436 -3.89053,9.27482 -2.33103,5.27842 -2.5217,8.42093 -0.55669,9.17498 2.06397,0.79201 8.71369,0.13603 17.24722,-1.70142 6.68279,-1.43895 9.97611,-2.49593 24.13232,-7.74521 8.68592,-3.22084 18.2375,-9.94788 25.46351,-17.93361 11.19775,-12.37504 28.02592,-28.50668 31.6847,-30.37325 9.25546,-4.72178 16.81579,-6.75582 26.64536,-7.1687 9.94423,-0.4177 11.24329,-0.10603 17.74027,4.25688 4.57629,3.07309 8.45501,11.50582 7.53992,16.39258 -1.70899,9.12633 -5.54235,14.95467 -14.08912,21.42143 -2.74099,2.07393 -5.14363,4.15269 -5.33918,4.61948 -0.19556,0.46678 -1.03556,0.84869 -1.86667,0.84869 -0.83111,0 -1.51111,0.40022 -1.51111,0.88937 0,0.48915 -2.7317,2.76915 -6.07043,5.06666 -3.33875,2.29752 -6.81875,4.92614 -7.73334,5.84138 -0.9146,0.91524 -4.3029,3.54446 -7.52957,5.8427 -3.22666,2.29824 -6.34666,4.6968 -6.93333,5.33012 -0.58667,0.63333 -2.98667,2.53055 -5.33333,4.21604 -3.92225,2.81716 -7.21639,5.63239 -14.05742,12.01373 -1.41508,1.32 -2.74306,2.4 -2.95106,2.4 -0.208,0 -2.14814,1.76995 -4.31141,3.93322 -4.07466,4.07467 -5.75558,9.73945 -2.68011,9.03214 12.9765,-2.98446 17.41846,-3.49068 25.91124,-2.9529 11.39324,0.72143 18.80409,3.54539 19.05465,7.2609 0.26893,3.9879 -0.18784,7.19651 -1.46003,10.25584 -0.65657,1.57894 -1.29399,3.2308 -1.41649,3.6708 -0.12248,0.44 -0.34271,1.04 -0.48937,1.33334 -0.14667,0.29333 -0.36812,0.89333 -0.49213,1.33333 -0.124,0.44 -0.53003,1.52 -0.90227,2.4 -1.46207,3.45632 -6.24151,17.30939 -6.58214,19.07817 -0.19844,1.03041 -1.06339,4.23935 -1.92211,7.13098 -0.85873,2.89163 -1.57176,5.49752 -1.58454,5.79085 -0.0128,0.29333 -0.36426,3.7178 -0.78107,7.60993 -1.16003,10.83224 -0.62596,11.67708 7.27897,11.51453 11.98174,-0.24638 43.04968,-5.46736 50.95463,-8.56294 3.98402,-1.56015 8.05207,-0.20236 9.38157,3.13128 0.62307,1.56229 1.63816,6.11143 2.25573,10.10919 2.99354,19.37762 8.73392,33.52441 12.3766,30.50127 0.74865,-0.62134 3.63284,-5.70698 6.40929,-11.30143 z"
       id="path3284"
       transform="translate(-36.949369,-36.808343)" />
    <g
       id="layer1"
       inkscape:label="01"
       transform="translate(-36.949369,-36.808343)"
       style="fill:#0066ff">
      <path
         style="fill:#0066ff;stroke-width:1.06667"
         d="m 243.70372,843.46668 c 6.23733,-19.23477 23.92921,-35.53637 44.29628,-40.81532 3.81334,-0.98839 10.89334,-1.81861 15.73334,-1.84493 7.91398,-0.0431 8.8,-0.25167 8.8,-2.07211 0,-1.11333 0.76686,-5.72401 1.70413,-10.24594 2.05707,-9.9245 1.10622,-15.6687 -4.40964,-26.63906 -8.43923,-16.7846 -26.00299,-29.73625 -45.17341,-33.31119 -44.39505,-8.27888 -84.19782,31.13279 -74.21448,73.48524 4.77277,20.24755 21.86703,38.58155 41.96812,45.01179 8.93465,2.85816 9.24328,2.76066 11.29566,-3.56848 z"
         id="path3282" />
      <path
         style="fill:#0066ff;stroke-width:1.06667"
         d="m 461.4135,854.55637 c -1.29127,-1.29128 -2.1648,-1.43973 -3.50335,-0.5954 -3.20922,2.02433 -2.61098,3.23023 1.37183,2.76526 3.54336,-0.41367 3.714,-0.58739 2.13152,-2.16986 z"
         id="path3280" />
      <path
         style="fill:#0066ff;stroke-width:1.06667"
         d="m 660.86541,851.01935 c 28.41117,-19.00254 39.71647,-55.49283 27.22632,-87.87875 -7.53108,-19.52745 -23.83788,-35.23638 -43.82505,-42.21823 -5.84574,-2.04201 -9.10853,-2.42 -20.8,-2.40964 -12.58735,0.0112 -14.60474,0.28959 -21.86667,3.01788 -10.36642,3.89463 -20.44767,10.49694 -27.49887,18.00927 l -5.63219,6.00053 2.6315,4.16857 c 13.78751,21.84082 14.87461,53.38858 2.67643,77.66979 -4.57942,9.1156 -4.55673,9.2828 2.13989,15.77224 l 4.35231,4.21765 13.06547,-0.26896 c 15.98624,-0.3291 25.73684,1.87373 38.53934,8.70666 l 8.65945,4.62173 6.24857,-2.0842 c 3.4367,-1.14632 9.77428,-4.44235 14.0835,-7.32453 z"
         id="path3278" />
      <path
         style="fill:#0066ff;stroke-width:1.06667"
         d="m 528.72124,859.51035 c 38.79573,-13.7272 58.141,-60.5436 40.81092,-98.76427 -4.92516,-10.86219 -15.66386,-24.74605 -19.14027,-24.74605 -0.5822,0 -1.05855,-0.48 -1.05855,-1.06667 0,-0.58667 -0.72,-1.06667 -1.6,-1.06667 -0.88,0 -1.6,-0.48 -1.6,-1.06666 0,-0.58667 -0.72,-1.06667 -1.6,-1.06667 -0.88,0 -1.6,-0.40402 -1.6,-0.89783 0,-0.4938 -1.92,-1.47307 -4.26666,-2.17614 -2.44557,-0.73272 -4.26667,-1.94297 -4.26667,-2.83551 0,-0.85645 -0.65899,-1.55719 -1.46441,-1.55719 -0.80543,0 -3.71341,-0.99484 -6.46219,-2.21076 -7.1611,-3.16769 -25.14842,-3.98133 -35.2734,-1.59555 -12.85911,3.03001 -22.31617,8.45233 -32.61759,18.70166 -14.78522,14.71047 -21.55837,30.97583 -21.55837,51.77132 0,20.32645 7.33085,38.31981 21.30601,52.29497 8.24491,8.2449 14.75013,11.91451 23.42572,13.21447 4.19235,0.62819 10.67235,2.31885 14.4,3.75702 9.09614,3.50937 21.43716,3.2481 32.56546,-0.68946 z"
         id="path3276" />
      <path
         style="fill:#0066ff;stroke-width:1.06667"
         d="m 430.20593,868.36496 c 11.12212,-7.15622 16.87841,-11.84011 20.68621,-16.83239 l 2.63446,-3.45396 -4.29156,-5.10596 c -20.5019,-24.39249 -24.5904,-58.13442 -10.61914,-87.63863 l 3.21971,-6.79934 -3.05113,-2.45324 c -18.71958,-15.0513 -46.00138,-19.81324 -69.12863,-12.06616 -32.66612,10.94236 -54.32597,45.74274 -49.66376,79.79357 1.54857,11.3101 6.59504,25.52752 11.3222,31.89799 0.15242,0.20542 3.54907,-0.46422 7.54809,-1.48808 10.85722,-2.77975 27.33122,-2.4424 38.21778,0.78259 13.2214,3.91666 22.13681,9.43144 32.51985,20.11568 4.98666,5.13133 9.45933,9.37918 9.93925,9.43967 0.47992,0.0605 5.27992,-2.72579 10.66667,-6.19174 z"
         id="path3274" />
      <path
         style="fill:#0066ff;stroke-width:1.06667"
         d="m 766.60869,874.15088 c 18.89863,-6.3309 35.05976,-21.60527 42.66637,-40.32526 8.25166,-20.30747 7.40453,-41.44307 -2.46734,-61.55894 -6.81192,-13.88063 -18.36503,-25.55504 -31.45722,-31.78753 -11.8616,-5.64665 -18.53993,-7.13838 -31.35049,-7.00268 -8.42815,0.0893 -12.50549,0.70894 -19.42881,2.95272 -9.30158,3.01455 -21.71007,10.57503 -27.88941,16.993 l -3.58488,3.72333 2.21041,6.76058 c 7.83922,23.97641 4.58092,50.86464 -8.46077,69.82007 l -3.43102,4.98681 2.55891,4.89125 c 4.02794,7.69924 18.36116,21.38917 27.24068,26.01809 16.78005,8.74748 35.9468,10.3731 53.39357,4.52856 z"
         id="path3272" />
      <path
         style="fill:#0066ff;stroke-width:1.06667"
         d="m 534.38996,880.01568 c 5.87831,-9.16055 18.97953,-20.51224 29.818,-25.83611 l 9.6148,-4.72282 -4.19496,-4.09627 -4.19498,-4.09628 -5.82996,5.92386 c -10.39277,10.56014 -22.7801,17.54883 -36.52528,20.60685 l -7.6814,1.70895 7.63524,7.76889 c 4.19939,4.27289 7.70522,7.83453 7.79072,7.91475 0.0856,0.0802 1.69103,-2.2471 3.56782,-5.17182 z"
         id="path3270" />
      <path
         style="fill:#0066ff;stroke-width:1.06667"
         d="m 888.86357,879.95028 c 44.0755,-40.38719 24.49572,-114.51235 -33.24869,-125.87288 -8.66917,-1.70555 -24.44629,-0.72568 -32.24118,2.00241 -5.03724,1.76296 -12.38278,5.05312 -13.57686,6.08126 -0.18508,0.15935 1.12992,3.1947 2.9222,6.74522 5.97375,11.83392 8.06366,21.42516 8.05358,36.96039 -0.007,11.51184 -0.43105,15.22065 -2.49432,21.83977 -4.10928,13.18279 -10.08565,23.60494 -19.05019,33.22148 l -4.59379,4.92793 6.82169,-1.89161 c 25.59735,-7.09793 53.39314,-0.61815 72.05228,16.79688 3.27712,3.0586 6.48897,5.5786 7.13746,5.6 0.64848,0.0214 4.3465,-2.86349 8.21782,-6.41085 z"
         id="path3268" />
      <path
         style="fill:#0066ff;stroke-width:1.06667"
         d="m 670.40377,882.70939 c 7.17162,-4.31852 16.24416,-7.46089 26.60004,-9.21321 l 7.40379,-1.2528 -4.20379,-3.27118 c -6.44874,-5.01806 -12.88222,-11.88692 -17.14076,-18.30075 l -3.86025,-5.81397 -7.06807,5.90716 c -3.88742,3.24892 -11.18969,7.93531 -16.22726,10.41418 l -9.15921,4.50703 5.24728,5.82376 c 2.88601,3.20306 6.45326,7.86374 7.92723,10.35708 1.47398,2.49333 3.05619,4.53333 3.51604,4.53333 0.45984,0 3.59408,-1.66078 6.96496,-3.69063 z"
         id="path3266" />
      <path
         style="fill:#0066ff;stroke-width:1.06667"
         d="m 764.96655,886.40002 c 3.34952,-3.52 5.76231,-6.37233 5.36175,-6.33851 -0.40056,0.0338 -4.08829,0.93402 -8.19495,2.00045 -6.14895,1.59677 -7.52886,2.35442 -7.81905,4.29313 -0.3129,2.09041 2.35994,6.44493 3.95595,6.44493 0.33344,0 3.34678,-2.88 6.6963,-6.4 z"
         id="path3264" />
      <path
         style="fill:#0066ff;stroke-width:1.06667"
         d="m 282.04069,906.60614 c 1.06136,-8.00093 5.56115,-19.75191 10.84332,-28.31682 5.44439,-8.82796 18.19431,-21.38124 26.44612,-26.03827 l 5.76158,-3.25164 -2.99506,-5.56637 c -4.10444,-7.62814 -7.22362,-17.35448 -8.71708,-27.18201 -0.68964,-4.53805 -1.76217,-8.60366 -2.38339,-9.03468 -1.82241,-1.26441 -10.1564,-0.90015 -18.19617,0.79532 -20.62905,4.35035 -37.94172,20.21905 -43.35424,39.73825 -6.26395,22.58976 2.89571,46.84332 22.78854,60.34104 7.78351,5.28129 8.93189,5.10741 9.80638,-1.48482 z"
         id="path3262" />
      <path
         style="fill:#0066ff;stroke-width:1.06667"
         d="m 372.26667,991.40592 c 9.15274,-2.15077 20.73254,-7.95651 27.1726,-13.62348 l 5.19691,-4.57303 -3.2777,-7.93803 c -1.80273,-4.36592 -3.87481,-10.81803 -4.60462,-14.33803 -1.82835,-8.81842 -1.59454,-26.24273 0.46975,-35.00698 2.19907,-9.33657 8.0452,-21.96757 13.5294,-29.23134 l 4.30653,-5.70395 -3.79565,-5.1707 c -14.00132,-19.07362 -39.48947,-29.89933 -62.86111,-26.69931 -46.26727,6.33487 -73.71496,55.84301 -55.63213,100.34515 6.67902,16.43716 21.34184,31.38927 37.65366,38.39656 12.10143,5.19859 28.78537,6.61135 41.84236,3.54314 z"
         id="path3260" />
      <path
         style="fill:#0066ff;stroke-width:1.06667"
         d="m 244.66681,994.18399 c 1.48944,-0.56628 3.94154,-4.12402 6.75656,-9.80308 5.47382,-11.04291 14.2842,-20.96819 24.5777,-27.68785 4.25431,-2.77725 8.24645,-5.21999 8.87143,-5.42831 0.74665,-0.24889 0.39173,-3.06571 -1.03501,-8.2143 -1.19423,-4.30953 -2.49307,-11.38598 -2.88631,-15.72544 l -0.71496,-7.88993 -4.38477,-1.96424 c -6.79202,-3.04263 -17.44782,-11.5982 -21.94516,-17.61983 -8.6217,-11.54387 -12.83962,-23.50468 -12.83962,-36.40949 v -7.57695 l -8.36574,-2.41732 c -7.17542,-2.07338 -9.20138,-2.26284 -14.23885,-1.33162 -32.26319,5.96419 -56.20737,33.45259 -58.1568,66.76519 -2.18311,37.30601 22.97497,69.86257 58.97472,76.31801 5.75793,1.0325 21.67551,0.3962 25.38681,-1.01484 z"
         id="path3258" />
      <path
         style="fill:#0066ff;stroke-width:1.06667"
         d="m 612.84257,995.71732 c 12.25795,-3.11592 21.57482,-8.59666 31.53049,-18.54813 14.77702,-14.77078 21.53624,-31.03963 21.53624,-51.83584 0,-12.96377 -1.98707,-21.38198 -7.93108,-33.6 -3.57876,-7.35621 -6.14341,-10.77874 -13.59455,-18.14192 -14.3233,-14.15423 -28.55785,-20.25808 -47.24305,-20.25808 -12.58961,0 -18.80452,1.44781 -30.67981,7.14711 -13.97027,6.70472 -24.2635,17.02771 -31.26323,31.35362 -11.04443,22.60393 -11.09122,44.02897 -0.146,66.8418 8.51333,17.74411 26.42627,32.51053 44.84858,36.97066 8.42194,2.03899 25.0589,2.07474 32.94241,0.0708 z"
         id="path3256" />
      <path
         style="fill:#0066ff;stroke-width:1.06667"
         d="m 489.60001,1004.1983 c 11.45572,-3.3921 20.27216,-8.87193 29.86667,-18.56352 4.98666,-5.03711 9.95185,-10.88913 11.03375,-13.00448 l 1.96708,-3.84608 -3.7561,-7.85876 c -6.17814,-12.92638 -7.60345,-19.77531 -7.51794,-36.12544 0.0615,-11.7724 0.5071,-15.76246 2.44162,-21.86667 3.77534,-11.91275 3.77762,-11.45638 -0.0804,-16.12103 -8.06076,-9.74595 -18.70478,-16.94639 -31.82132,-21.52636 -6.97067,-2.43398 -9.64693,-2.78586 -20.8,-2.73475 -10.93352,0.0501 -13.94087,0.4601 -20.62391,2.81176 -10.81865,3.80692 -18.55718,8.63656 -26.87114,16.77038 -15.82317,15.48033 -23.79808,37.85307 -21.30657,59.77328 1.15923,10.19892 1.81422,12.88805 5.0565,20.76006 9.31446,22.61485 28.04003,37.98081 52.61839,43.17801 6.44989,1.3639 22.65067,0.4686 29.7934,-1.6464 z"
         id="path3254" />
      <path
         style="fill:#0066ff;stroke-width:1.06667"
         d="m 839.88324,1018.6966 c 13.35513,-3.4157 22.23647,-8.6813 33.22337,-19.69755 7.80788,-7.82875 10.4821,-11.3888 14.07129,-18.73236 6.61116,-13.52659 8.22298,-20.62517 8.23481,-36.26667 0.009,-10.97183 -0.42842,-14.7421 -2.46572,-21.28739 -7.04791,-22.64299 -20.25233,-38.42763 -40.14698,-47.99193 -11.34058,-5.45196 -18.13941,-6.9645 -30.93333,-6.88177 -12.83907,0.083 -21.4198,2.19496 -32.68138,8.04368 -8.16721,4.24165 -19.19749,13.26315 -23.35474,19.10146 l -2.21954,3.11706 3.88779,5.08278 c 5.24256,6.85397 11.63327,20.51101 13.83999,29.57625 2.38598,9.80165 2.38898,27.59071 0.006,37.41306 -0.99087,4.08474 -3.94696,11.90253 -6.56909,17.37288 -2.62213,5.47035 -4.61942,10.38796 -4.43843,10.92802 0.68334,2.03898 12.34051,10.75318 19.22565,14.37198 14.94643,7.8557 33.87473,10.0564 50.31999,5.8505 z"
         id="path3252" />
      <path
         style="fill:#0066ff;stroke-width:1.06667"
         d="m 720.70435,1022.3308 c 54.11276,-11.1773 74.55911,-78.674 36.72157,-121.22392 -14.64963,-16.47414 -41.44786,-25.27601 -62.98838,-20.68851 -8.15657,1.7371 -21.00126,7.25192 -25.48178,10.94049 l -2.51093,2.06711 2.18055,7.05977 c 3.60634,11.676 4.77136,23.3329 3.38104,33.83022 -2.34513,17.7065 -9.35401,33.26713 -20.45558,45.41401 l -5.53546,6.05668 1.95134,3.6234 c 5.07485,9.42341 17.97054,21.46715 28.83329,26.92835 14.41187,7.2455 28.51712,9.1708 43.90434,5.9924 z"
         id="path3250" />
      <path
         style="fill:#0066ff;stroke-width:1.06667"
         d="m 671.90821,1042.3152 c 1.72641,-3.42 4.83107,-8.435 6.89925,-11.1444 l 3.76032,-4.9263 -5.95257,-2.7252 c -12.55192,-5.7465 -26.50366,-18.0324 -33.06739,-29.11929 l -2.68387,-4.53334 -4.42208,2.637 c -5.40525,3.22331 -5.78295,4.11921 -2.38859,5.66579 4.91184,2.23794 18.75921,16.49374 23.66181,24.35964 4.67873,7.5067 9.94869,20.2325 9.99576,24.1376 0.0371,3.0761 0.89905,2.1824 4.19736,-4.3515 z"
         id="path3248" />
      <path
         style="fill:#0066ff;stroke-width:1.06667"
         d="m 515.25103,1055.8671 c 2.2567,-0.8238 3.00705,-2.2084 4.42362,-8.1629 2.65091,-11.1429 5.93035,-18.8675 11.62425,-27.3806 5.77045,-8.6276 15.50107,-18.2157 22.86778,-22.53284 2.62166,-1.5364 4.76666,-3.15079 4.76666,-3.58755 0,-0.43675 -1.18946,-1.33604 -2.64325,-1.99844 -1.45379,-0.66239 -6.45344,-4.84458 -11.11034,-9.29374 l -8.46706,-8.08939 -3.51956,5.12253 c -9.36645,13.63232 -23.36954,24.34713 -38.55347,29.50033 -1.72402,0.5851 -1.58976,1.242 1.49857,7.3324 5.44884,10.7455 7.41571,18.3996 8.07988,31.4428 l 0.60865,11.953 3.85329,-1.6568 c 2.11931,-0.9112 5.07625,-2.1032 6.57098,-2.6488 z"
         id="path3246" />
      <path
         style="fill:#0066ff;stroke-width:1.06667"
         d="m 322.52687,1081.0583 c 9.24438,-2.4078 17.04698,-6.627 24.16047,-13.0644 l 6.37933,-5.7729 v -9.8732 c 0,-12.9192 2.8142,-24.0178 9.35167,-36.8811 3.71206,-7.3039 4.97439,-10.8779 4.52097,-12.8 -0.61166,-2.5929 -0.95229,-2.68426 -12.31751,-3.30224 -6.42865,-0.34957 -14.56846,-1.47317 -18.08846,-2.49693 -16.58923,-4.82475 -32.95216,-17.06548 -42.5885,-31.85947 l -5.25517,-8.06787 -3.27817,1.66388 c -11.2498,5.70999 -22.74682,17.08961 -28.33738,28.04802 -7.63201,14.96001 -9.25096,36.73681 -3.93259,52.89821 4.5186,13.7311 13.84644,26.1393 25.71082,34.2014 11.93045,8.107 29.38852,11.0276 43.67452,7.3066 z"
         id="path3244" />
      <path
         style="fill:#0066ff;stroke-width:1.06667"
         d="m 445.17938,1123.6623 c 12.40014,-3.1617 21.7283,-8.6281 31.6675,-18.5576 14.7498,-14.7355 21.23889,-30.4652 21.2707,-51.5608 0.0195,-12.9492 -2.09784,-22.5655 -7.22879,-32.8306 l -3.95545,-7.9133 -13.86667,-0.065 c -16.17315,-0.076 -20.97211,-1.1319 -34.50095,-7.5894 -7.99303,-3.8151 -11.75082,-6.46956 -18.96918,-13.39947 l -9.00157,-8.64187 -6.09748,2.47475 c -19.4174,7.88081 -34.23768,23.71309 -41.46691,44.29839 -2.73141,7.7776 -2.99319,9.8291 -2.99319,23.4564 0,13.6273 0.26178,15.6787 2.99319,23.4564 10.51735,29.9483 35.094,48.2508 65.08213,48.4676 6.2945,0.046 13.14247,-0.5945 17.06667,-1.5951 z"
         id="path3242" />
      <path
         style="fill:#0066ff;stroke-width:1.06667"
         d="m 608.21418,1135.9102 c 8.18461,-1.6745 23.9604,-9.6502 30.46615,-15.4027 19.42532,-17.1756 28.44404,-44.756 23.0982,-70.6369 -4.08445,-19.7741 -17.58563,-38.9662 -33.50831,-47.6324 l -5.041,-2.74362 -8.8738,2.24402 c -11.76969,2.9763 -29.95301,2.4525 -40.65971,-1.1714 l -7.10431,-2.40449 -5.69569,3.02439 c -3.13264,1.6635 -9.82357,7.1169 -14.86875,12.1187 -14.75091,14.6242 -21.5821,31.0076 -21.5821,51.7609 0,12.9342 1.98829,21.298 7.98755,33.6 3.54755,7.2746 6.23467,10.879 13.59455,18.2358 9.80069,9.7966 19.14011,15.3579 31.03972,18.483 7.04667,1.8507 23.32626,2.1249 31.1475,0.5247 z"
         id="path3240" />
      <path
         style="fill:#0066ff;stroke-width:1.06667"
         d="m 760.53335,1149.2787 c 31.09238,-9.2926 52.26666,-37.791 52.26666,-70.3453 0,-16.7434 -4.86874,-31.0091 -15.33491,-44.9321 -7.81027,-10.39 -20.9162,-19.9395 -32.28261,-23.5225 l -5.54158,-1.7468 -5.11057,4.4985 c -7.28339,6.4111 -22.49299,13.5497 -33.42768,15.6892 -8.66362,1.6952 -22.97676,1.587 -29.56104,-0.2233 -4.63664,-1.2749 -16.6614,18.4405 -20.07343,32.9116 -2.03443,8.6285 -2.00927,26.1122 0.0502,34.9254 6.15329,26.3308 28.09224,47.6998 55.41487,53.9752 8.01584,1.841 25.46166,1.2025 33.6,-1.2299 z"
         id="path3238" />
      <path
         style="fill:#0066ff;stroke-width:1.06667"
         d="m 687.33362,1160.8167 c 3.90075,-3.649 9.00274,-7.7255 11.33778,-9.0589 2.33503,-1.3335 4.24836,-2.6644 4.25182,-2.9578 0.003,-0.2933 -2.18794,-1.9195 -4.8698,-3.6139 -12.96659,-8.192 -25.75995,-25.1101 -30.97728,-40.9646 -2.87012,-8.7218 -2.92883,-8.8024 -4.2056,-5.7658 -5.96941,14.197 -21.69784,30.4063 -36.61377,37.733 l -9.5501,4.691 7.11333,1.3006 c 10.88225,1.9896 25.50877,9.662 34.38801,18.0382 4.07991,3.8488 9.15161,9.3594 11.27045,12.2458 l 3.85247,5.2482 3.45521,-5.1307 c 1.90037,-2.8219 6.64674,-8.1162 10.54748,-11.7651 z"
         id="path3236" />
      <path
         style="fill:#0066ff;stroke-width:1.06667"
         d="m 535.92387,1195.2 c 7.21259,-22.5974 23.41016,-40.7316 43.77468,-49.0084 l 6.07995,-2.471 -8.15568,-1.8145 c -13.4115,-2.9838 -25.96446,-9.9884 -36.13499,-20.1637 -13.96909,-13.9754 -20.96761,-28.6675 -23.26043,-48.831 -1.3497,-11.8695 -1.11844,-11.7074 -9.88523,-6.9291 -3.73076,2.0334 -4.44324,3.1047 -6.48572,9.7511 -3.78926,12.3305 -10.44463,24.014 -18.9322,33.2357 l -4.08262,4.4356 6.5224,5.0189 c 18.54669,14.2714 29.79645,37.2181 30.0574,61.3098 0.0604,5.5733 -0.24282,12.1489 -0.67374,14.6122 l -0.78349,4.479 5.68458,1.5972 c 6.49347,1.8244 10.38502,2.5671 12.4549,2.3769 0.79564,-0.074 2.50068,-3.4646 3.82019,-7.5987 z"
         id="path3234" />
      <path
         style="fill:#0066ff;stroke-width:1.06667"
         d="m 362.66667,1214.5639 c 6.69699,-1.4047 6.72559,-1.494 3.81105,-11.8972 -0.98615,-3.52 -2.07633,-10.8189 -2.42261,-16.2197 -1.46371,-22.8288 6.03588,-43.9512 21.14095,-59.5427 l 5.19506,-5.3624 -6.57714,-4.7709 c -11.61706,-8.4269 -22.31162,-23.6115 -27.02466,-38.371 -1.03035,-3.2266 -2.08177,-6.2332 -2.33649,-6.681 -0.25472,-0.4479 -3.19081,1.3031 -6.52464,3.891 -11.62972,9.0279 -23.91654,13.4567 -37.33277,13.4567 h -7.49665 l -4.63901,5.303 c -28.652,32.7536 -23.24128,83.6123 11.5354,108.4284 15.71868,11.2166 34.88109,15.4971 52.67151,11.7658 z"
         id="path3232" />
      <path
         style="fill:#0066ff;stroke-width:1.06667"
         d="m 534.72969,1239.7334 c -0.87717,-2.7867 -1.8557,-10.6972 -2.17449,-17.579 l -0.57963,-12.5123 -3.85445,-0.6416 c -2.11995,-0.3529 -6.42604,-1.3508 -9.5691,-2.2175 -3.14305,-0.8667 -5.86287,-1.4275 -6.04402,-1.2461 -0.18116,0.1814 -1.36888,2.9698 -2.63937,6.1965 -3.52043,8.9408 -9.1435,17.5423 -16.48348,25.2145 -4.42467,4.6249 -5.89957,6.7427 -4.41481,6.3391 11.9922,-3.2602 30.42875,-3.375 40.09634,-0.2496 7.41467,2.397 7.45091,2.3759 5.66301,-3.304 z"
         id="path3230" />
      <path
         style="fill:#0066ff;stroke-width:1.06667"
         d="m 456.04257,1251.7174 c 3.4966,-0.8889 9.94125,-3.3664 14.32146,-5.5056 10.66156,-5.2071 24.61111,-18.9489 30.17585,-29.7265 11.49108,-22.2555 11.48621,-48.1079 -0.0132,-70.3038 -4.22492,-8.1549 -18.2879,-23.3895 -24.56344,-26.6098 -3.35293,-1.7206 -3.63448,-1.7046 -6.55233,0.3732 -16.64041,11.8489 -43.98268,15.1954 -65.02396,7.9584 l -8.94643,-3.0771 -6.3098,6.8603 c -7.58453,8.2464 -15.15747,22.8885 -17.40231,33.6469 -3.5386,16.9588 -1.34512,33.5856 6.5374,49.5539 3.97875,8.06 6.60932,11.7103 13.09015,18.1639 9.02883,8.9911 20.97246,15.9874 31.74424,18.5953 8.42194,2.0391 25.0589,2.0748 32.94241,0.07 z"
         id="path3228" />
      <path
         style="fill:#0066ff;stroke-width:1.06667"
         d="m 758.98588,1288.0205 c 19.09703,-6.4012 33.06956,-19.0136 41.78683,-37.7195 9.22403,-19.7931 8.81841,-45.2859 -1.02935,-64.6937 -5.5346,-10.9075 -15.14418,-21.6034 -25.1731,-28.0189 l -5.87427,-3.7578 -8.08132,2.001 c -10.80943,2.6764 -28.90138,2.6567 -38.48132,-0.042 -12.02075,-3.386 -12.62183,-3.3386 -20.24009,1.5983 -8.23945,5.3394 -17.96947,15.0203 -21.98745,21.8765 l -2.90566,4.9581 2.78018,8.2362 c 1.5291,4.5299 3.29757,12.3999 3.92993,17.4887 1.42428,11.4616 0.0251,24.277 -3.92993,35.9936 l -2.78018,8.2362 2.90566,4.9581 c 8.84223,15.0881 27.00336,27.3761 46.56747,31.5081 8.21357,1.7346 23.09353,0.5341 32.5126,-2.6231 z"
         id="path3226" />
      <path
         style="fill:#0066ff;stroke-width:1.06667"
         d="m 621.64498,1290.0555 c 21.00905,-4.2876 38.82497,-18.3029 48.71371,-38.3221 4.95424,-10.0296 7.22414,-20.2519 7.22414,-32.5334 0,-28.756 -15.16034,-53.4541 -40.24949,-65.5714 -19.12853,-9.2385 -39.50544,-9.0152 -59.2,0.6485 -7.13127,3.4992 -10.90448,6.2925 -17.67623,13.0859 -9.61296,9.6436 -13.82834,16.336 -18.20564,28.9037 -2.6836,7.7048 -2.97216,9.9314 -2.97216,22.9333 0,13.0019 0.28856,15.2285 2.97216,22.9334 4.3773,12.5676 8.59268,19.26 18.20564,28.9036 17.00665,17.0609 38.31957,23.6855 61.18787,19.0185 z"
         id="path3224" />
      <path
         style="fill:#0066ff;stroke-width:1.06667"
         d="m 410.01656,1357.8966 c 8.10445,-2.0728 20.17487,-7.7514 24.97069,-11.7477 2.44963,-2.0412 2.45103,-2.0587 0.8,-10.0519 -5.2574,-25.4526 1.83654,-52.1733 18.71149,-70.4805 2.3938,-2.597 4.07693,-5.1674 3.74029,-5.7122 -0.35282,-0.5708 -6.37824,-0.7683 -14.22555,-0.4661 -15.96424,0.6147 -24.15356,-0.8994 -36.199,-6.6931 -12.86564,-6.1881 -26.12818,-18.2106 -32.59264,-29.5451 -1.25474,-2.2 -2.84846,-4 -3.5416,-4 -0.69315,0 -4.80477,1.7538 -9.13692,3.8974 -10.88625,5.3866 -24.43679,19.0293 -30.0315,30.236 -18.38778,36.8321 -5.08053,80.3336 30.35125,99.2186 13.59603,7.2465 31.69546,9.2981 47.15349,5.3446 z"
         id="path3222" />
      <path
         style="fill:#0066ff;stroke-width:1.06667"
         d="m 521.96465,1390.4347 c 26.99235,-4.811 49.5558,-26.9539 55.7259,-54.6874 2.42059,-10.8801 1.63086,-30.1579 -1.61088,-39.3228 -2.11943,-5.9919 -2.8945,-6.9135 -9.75885,-11.6038 -8.93929,-6.1079 -17.24198,-15.0264 -22.73856,-24.4252 -4.42682,-7.5696 -6.61513,-8.9262 -19.1749,-11.8882 -24.54426,-5.7881 -53.3667,4.8857 -68.5883,25.4005 -17.58791,23.7037 -20.20472,53.3235 -7.04057,79.6922 5.99952,12.0175 19.1834,24.9843 31.22152,30.7077 4.98666,2.3707 11.70667,4.8267 14.93333,5.4576 3.22667,0.6309 6.82667,1.3361 8,1.5672 4.36408,0.8593 10.90372,0.5508 19.03131,-0.8978 z"
         id="path3220" />
      <path
         style="fill:#0066ff;stroke-width:1.06667"
         d="m 664.51093,1396.7775 c 22.42219,-8.2062 39.47709,-27.175 45.5343,-50.6441 2.40778,-9.3292 2.36065,-27.0842 -0.0963,-36.2667 -3.40865,-12.7394 -7.50604,-19.7778 -14.89311,-25.5832 -3.66517,-2.8803 -10.05266,-8.8624 -14.19441,-13.2935 -4.14176,-4.4311 -7.94993,-8.0533 -8.46261,-8.0494 -0.51267,0 -2.0696,1.6777 -3.45982,3.7191 -1.39022,2.0414 -6.02719,7.0359 -10.30437,11.0987 -18.29058,17.3743 -46.56725,24.5424 -69.67315,17.662 -3.13787,-0.9344 -5.94571,-1.4583 -6.23965,-1.1644 -0.29394,0.2939 0.11341,2.3665 0.90522,4.6059 0.97137,2.7472 1.43963,9.4492 1.43963,20.6048 0,16.0334 -0.10764,16.8356 -3.55974,26.531 l -3.55975,9.9977 3.36673,6.633 c 8.90559,17.5454 26.29253,31.4272 45.42367,36.2665 10.06782,2.5466 27.73594,1.5562 37.77335,-2.1174 z"
         id="path3218" />
      <path
         style="fill:#0066ff;stroke-width:1.06667"
         d="m 549.90924,1489.584 c 12.18218,-3.0967 21.56471,-8.631 31.55056,-18.6102 14.68887,-14.6792 21.15923,-30.4232 21.19111,-51.5632 0.009,-5.7508 -0.72837,-13.7278 -1.63788,-17.7266 -1.5775,-6.9358 -2.08156,-7.7067 -10.94743,-16.7439 -5.46544,-5.5711 -10.60613,-11.9988 -12.47969,-15.6042 -1.75225,-3.3719 -3.48062,-6.1319 -3.84083,-6.1333 -0.36022,0 -2.01833,1.9648 -3.68471,4.3694 -1.66637,2.4046 -6.00154,7.0846 -9.63374,10.4 -23.00407,20.9979 -54.74758,25.9112 -82.4246,12.7577 -7.88421,-3.7468 -7.5226,-3.9798 -11.0796,7.137 -1.99682,6.2407 -2.38418,9.831 -2.3592,21.8667 0.0269,12.9605 0.32716,15.253 3.00367,22.9333 8.03605,23.0597 26.58226,40.89 48.69978,46.8201 7.80253,2.0919 25.59319,2.1433 33.64256,0.097 z"
         id="path3216" />
    </g>
  </g>
</svg>
