<?xml version="1.0" encoding="UTF-8" standalone="no"?>
<!DOCTYPE svg PUBLIC "-//W3C//DTD SVG 20010904//EN"
              "http://www.w3.org/TR/2001/REC-SVG-20010904/DTD/svg10.dtd">

<svg xmlns="http://www.w3.org/2000/svg"
     width="5.34722in" height="5.86111in"
     viewBox="0 0 385 422"
     alt="thikowmack"
     >
  <path id="Selection"
        fill="#D3D3D3" stroke="#D3D3D3" stroke-width="1"
        d="M 67.00,2.00
           C 71.59,24.81 87.94,53.17 100.09,73.00
             109.92,89.05 119.97,105.91 135.00,117.58
             139.69,121.21 147.56,126.26 153.00,128.54
             164.30,133.28 181.19,134.18 190.95,125.66
             193.88,123.10 194.63,121.34 196.30,118.00
             198.06,114.49 200.37,110.97 200.80,107.00
             201.83,97.52 194.08,85.23 188.63,78.00
             183.79,71.60 180.94,69.68 175.00,64.58
             158.61,50.50 147.29,44.61 128.00,35.69
             117.50,30.84 108.86,26.00 97.00,25.00
             98.27,31.24 103.22,39.20 106.25,45.00
             113.19,58.22 121.54,69.24 130.57,81.00
             137.39,89.89 134.52,88.47 144.00,98.00
             151.37,105.41 160.33,114.64 172.00,110.11
             179.96,107.02 179.26,97.38 175.87,91.00
             172.39,84.46 163.70,76.99 158.00,72.25
             152.04,67.28 147.74,62.94 140.00,61.00
             140.00,61.00 139.00,62.00 139.00,62.00
             141.41,68.50 154.49,78.91 159.70,85.00
             161.79,87.44 166.03,92.48 165.55,95.88
             165.09,99.20 162.24,98.89 160.00,97.46
             157.25,95.71 153.33,90.60 150.91,88.00
             150.91,88.00 141.52,78.00 141.52,78.00
             141.52,78.00 132.92,65.00 132.92,65.00
             132.92,65.00 119.00,45.00 119.00,45.00
             125.11,46.73 129.40,49.41 135.00,51.97
             135.00,51.97 149.00,58.43 149.00,58.43
             157.85,63.54 174.07,77.75 179.96,86.00
             187.78,96.94 194.08,105.90 181.83,116.47
             180.24,117.84 177.96,119.27 176.00,120.01
             165.14,124.10 146.85,112.69 139.00,105.82
             130.18,98.09 118.36,80.27 111.78,70.00
             102.22,55.07 87.76,30.84 83.00,14.00
             103.84,19.54 123.00,21.93 142.00,33.68
             155.35,41.94 167.35,49.17 179.00,59.98
             188.00,68.32 194.08,70.31 201.75,82.00
             203.18,84.17 207.68,93.59 208.37,96.00
             209.18,98.88 208.97,102.03 208.94,105.00
             209.05,107.90 209.36,111.16 208.94,114.00
             206.27,129.22 192.23,143.97 181.00,153.57
             158.36,172.93 128.30,175.93 110.04,192.30
             102.04,199.47 95.40,213.95 91.58,224.00
             88.57,231.90 86.11,237.28 86.00,246.00
             86.00,246.00 86.00,262.00 86.00,262.00
             86.18,276.96 100.44,297.51 113.00,304.85
             127.15,313.11 142.68,319.34 155.83,305.56
             158.64,302.62 160.40,299.08 160.80,295.00
             162.15,281.28 146.42,278.49 137.48,288.21
             135.52,290.34 132.07,297.72 138.06,297.09
             140.27,296.86 142.60,294.24 144.85,294.33
             147.64,294.44 148.73,298.36 144.85,301.27
             138.85,305.77 127.42,301.50 122.00,297.78
             111.90,290.84 100.32,276.15 97.53,264.00
             96.90,261.28 96.97,257.82 97.00,255.00
             97.00,255.00 98.52,239.00 98.52,239.00
             99.34,235.16 101.09,231.61 102.55,228.00
             107.13,216.75 111.80,205.19 122.00,197.78
             127.08,194.09 132.37,192.10 138.00,189.56
             138.00,189.56 147.00,185.09 147.00,185.09
             147.00,185.09 165.00,177.96 165.00,177.96
             165.00,177.96 173.00,175.59 173.00,175.59
             177.79,173.40 191.17,164.53 195.00,160.96
             203.68,152.86 210.82,144.47 216.56,134.00
             216.56,134.00 220.79,124.00 220.79,124.00
             220.79,124.00 233.69,100.01 233.69,100.01
             238.48,92.67 252.10,80.82 259.17,74.17
             279.02,55.49 303.17,61.92 326.00,69.77
             326.00,69.77 336.00,73.01 336.00,73.01
             336.00,73.01 359.00,83.86 359.00,83.86
             360.61,84.73 365.35,87.79 366.83,85.36
             368.26,83.03 364.57,80.04 362.98,78.91
             362.98,78.91 344.00,69.25 344.00,69.25
             335.94,65.22 327.64,61.78 319.00,59.20
             313.28,57.49 306.17,56.40 301.00,53.47
             292.69,48.76 286.93,40.96 281.00,36.55
             276.00,32.84 264.23,29.09 258.00,29.08
             248.15,29.06 235.69,32.52 228.00,38.67
             225.49,40.68 218.06,47.90 223.33,50.92
             227.15,53.11 231.63,46.77 239.00,44.46
             249.28,41.22 269.02,43.29 276.00,52.00
             262.17,54.83 248.95,67.46 239.00,76.97
             235.79,80.04 227.62,89.34 223.04,88.26
             219.71,87.48 215.30,80.83 213.43,78.00
             208.75,70.92 202.43,62.96 196.00,57.43
             196.00,57.43 186.00,48.91 186.00,48.91
             181.57,44.79 177.97,40.54 173.00,36.93
             173.00,36.93 164.00,31.69 164.00,31.69
             155.55,26.56 147.27,21.09 138.00,17.46
             138.00,17.46 129.00,14.54 129.00,14.54
             115.65,9.43 113.38,8.48 99.00,5.74
             90.12,4.05 75.52,-0.40 67.00,2.00 Z
           M 35.23,175.02
           C 28.35,181.35 33.50,190.06 35.90,197.00
             37.56,201.79 38.94,210.90 39.00,216.00
             39.08,223.16 39.18,226.02 36.97,233.00
             34.75,240.02 30.77,248.54 32.94,256.00
             36.37,267.80 47.87,272.28 56.00,280.04
             56.00,280.04 66.00,289.71 66.00,289.71
             66.00,289.71 90.00,309.32 90.00,309.32
             90.00,309.32 100.00,318.62 100.00,318.62
             108.12,325.12 126.53,333.74 137.00,333.99
             152.83,334.35 171.72,324.14 177.60,309.00
             184.87,290.29 175.43,264.95 153.00,264.04
             142.32,263.61 133.08,268.01 127.10,277.00
             124.87,280.35 120.19,289.34 126.10,291.75
             130.81,293.68 131.80,284.54 137.21,279.21
             146.53,270.02 158.98,274.74 166.02,284.00
             176.59,297.89 161.73,317.75 146.00,322.21
             139.76,323.99 128.91,321.55 123.00,319.05
             115.44,315.85 104.04,308.43 98.17,302.72
             98.17,302.72 91.96,296.04 91.96,296.04
             91.96,296.04 83.00,287.96 83.00,287.96
             83.00,287.96 68.00,273.17 68.00,273.17
             62.60,268.35 48.63,258.99 46.18,253.00
             44.59,249.14 46.77,244.73 48.00,241.00
             50.02,234.87 51.54,228.47 51.91,222.00
             51.91,222.00 50.13,202.00 50.13,202.00
             49.66,198.66 47.85,194.04 50.13,190.94
             52.92,186.46 62.01,186.06 67.00,186.00
             67.00,186.00 93.00,186.00 93.00,186.00
             95.35,186.00 98.80,186.19 100.85,184.98
             104.67,182.72 104.67,177.28 100.85,175.02
             98.80,173.81 95.35,174.00 93.00,174.00
             93.00,174.00 55.00,174.00 55.00,174.00
             49.37,174.00 40.27,173.18 35.23,175.02 Z
           M 187.23,176.02
           C 183.71,179.27 183.01,184.07 188.11,186.26
             190.14,187.14 193.75,187.00 196.00,187.00
             196.00,187.00 233.00,187.00 233.00,187.00
             236.61,187.05 243.00,187.76 244.92,191.39
             246.92,195.17 241.47,199.80 238.30,201.15
             236.82,201.37 234.48,201.28 232.88,201.15
             232.88,201.15 203.38,201.15 203.38,201.15
             203.38,201.15 191.00,202.00 191.00,202.00
             191.00,202.00 150.00,202.00 150.00,202.00
             147.79,202.00 144.12,201.86 142.13,202.74
             137.83,204.63 137.51,210.44 141.28,212.83
             143.48,214.22 147.43,214.00 150.00,214.00
             150.00,214.00 231.00,214.00 231.00,214.00
             234.62,214.01 239.00,213.62 241.23,217.15
             242.27,218.78 242.25,228.74 242.73,232.00
             244.01,240.68 247.04,249.08 250.78,257.00
             250.78,257.00 255.45,267.00 255.45,267.00
             257.90,273.92 262.43,296.04 261.50,303.00
             260.13,313.23 256.43,318.29 252.51,327.00
             250.54,331.39 250.80,332.12 247.99,337.00
             247.99,337.00 239.31,351.00 239.31,351.00
             235.04,358.78 225.73,376.42 218.98,381.36
             211.84,386.61 200.65,387.99 192.00,388.00
             192.00,388.00 103.00,388.00 103.00,388.00
             97.08,387.93 86.02,385.60 81.00,382.53
             65.21,372.87 52.99,345.92 43.60,330.00
             39.55,323.12 36.65,314.69 34.44,307.00
             33.45,303.56 32.71,300.14 36.15,297.76
             40.45,294.78 43.23,298.93 46.16,301.49
             46.16,301.49 69.00,321.83 69.00,321.83
             76.83,328.81 84.14,333.94 93.00,339.42
             111.74,351.03 118.50,354.92 141.00,354.04
             146.96,353.80 149.98,354.08 156.00,352.23
             159.19,351.24 162.02,349.70 165.00,348.26
             177.26,342.33 186.83,336.44 193.69,324.00
             198.14,315.92 201.82,305.30 201.82,296.00
             201.82,274.23 186.68,251.66 165.00,246.50
             145.50,241.86 128.35,248.46 116.80,265.00
             115.03,267.53 112.15,272.85 112.27,275.98
             112.39,279.08 114.75,281.36 117.90,280.34
             120.80,279.41 124.43,271.86 126.67,269.00
             133.53,260.24 138.70,256.14 150.00,256.00
             153.30,255.96 158.98,255.78 162.00,256.63
             181.49,262.17 194.15,286.74 188.38,306.00
             182.74,324.82 162.15,342.76 142.00,343.00
             142.00,343.00 136.00,343.00 136.00,343.00
             122.56,342.84 115.03,337.85 104.00,330.95
             92.22,323.57 81.20,315.48 71.00,305.98
             71.00,305.98 56.59,293.26 56.59,293.26
             50.95,288.12 49.44,284.42 41.00,284.04
             21.27,283.15 17.78,299.41 23.10,315.00
             23.10,315.00 29.64,332.00 29.64,332.00
             35.75,344.81 52.02,372.08 61.12,382.42
             68.54,390.87 73.50,398.83 86.00,399.00
             86.00,399.00 212.00,399.00 212.00,399.00
             214.45,399.00 217.72,399.13 220.00,398.26
             226.14,395.92 232.93,386.46 236.43,381.00
             236.43,381.00 244.55,369.00 244.55,369.00
             244.55,369.00 250.92,357.00 250.92,357.00
             256.07,348.37 258.29,345.65 262.59,336.00
             268.35,323.05 273.93,316.45 274.00,301.00
             274.06,287.40 272.14,278.01 268.28,265.00
             263.56,249.09 255.37,242.17 255.02,224.00
             254.83,214.46 256.70,207.65 260.21,199.00
             263.23,192.49 274.16,177.47 260.21,175.07
             260.21,175.07 254.00,175.07 254.00,175.07
             254.00,175.07 209.00,175.07 209.00,175.07
             203.16,175.00 192.31,174.16 187.23,176.02 Z
           M 147.00,229.22
           C 139.23,230.87 124.16,235.71 118.09,240.55
             115.97,242.24 111.23,247.74 109.52,250.00
             106.95,253.40 104.07,258.60 104.20,263.00
             104.27,265.45 105.63,269.28 108.82,267.83
             112.16,266.32 111.64,260.90 118.62,253.10
             125.87,245.01 143.00,237.39 154.00,238.09
             159.74,238.46 171.96,240.93 177.00,243.44
             181.92,245.90 183.95,248.08 188.00,251.58
             191.96,254.99 197.22,259.63 200.03,264.00
             216.61,289.75 206.28,327.04 184.91,346.70
             179.22,351.94 174.73,353.94 168.00,357.12
             151.23,365.04 135.90,365.95 118.00,361.47
             112.84,360.18 109.88,359.67 105.00,357.11
             98.75,353.84 87.59,347.27 82.00,343.22
             79.12,341.13 73.31,334.99 71.02,334.17
             67.68,332.96 65.35,335.98 67.45,339.91
             68.23,341.38 77.49,351.13 79.09,352.54
             97.29,368.64 111.96,374.17 136.00,374.00
             144.50,373.93 146.97,373.12 155.00,371.61
             175.55,367.75 190.86,360.30 203.42,343.00
             205.45,340.21 208.02,337.01 209.60,334.00
             218.32,317.37 222.19,291.15 216.68,273.00
             216.68,273.00 213.74,266.00 213.74,266.00
             212.17,262.22 210.77,258.37 208.37,255.00
             205.04,250.36 199.51,245.64 195.00,242.12
             186.31,235.33 188.41,235.97 178.00,232.49
             169.60,229.68 170.27,229.01 161.00,229.22
             161.00,229.22 147.00,229.22 147.00,229.22 Z" />
</svg>
